<svg xmlns="http://www.w3.org/2000/svg" style="display: none;">
  <symbol id="icon-arrow" viewBox="0 0 17 10" stroke="none">
    <path d="M16.15 5.7a.61.61 0 0 0 0-.86L12.27.95a.61.61 0 1 0-.87.87l3.45 3.45-3.45 3.45a.61.61 0 1 0 .87.86l3.88-3.88ZM.82 5.27v.6h14.9V4.67H.82v.6Z" />
  </symbol>
  <symbol id="icon-check-fill" viewBox="0 0 20 20" stroke="none">
    <path
      d="M17.65 8.03c-.3-.3-.6-.62-.72-.9-.1-.26-.11-.68-.12-1.09 0-.76-.02-1.63-.62-2.23-.6-.6-1.47-.61-2.23-.62-.41 0-.83-.02-1.09-.12-.28-.12-.6-.42-.9-.72-.54-.51-1.15-1.1-1.97-1.1-.82 0-1.43.59-1.97 1.1-.3.3-.62.6-.9.72-.25.1-.68.11-1.09.12-.76 0-1.63.02-2.23.62-.6.6-.6 1.47-.62 2.23 0 .41-.02.83-.12 1.09-.12.28-.42.6-.72.9-.51.54-1.1 1.15-1.1 1.97 0 .82.59 1.43 1.1 1.97.3.3.6.62.72.9.1.26.11.68.12 1.09 0 .76.02 1.63.62 2.23.6.6 1.47.61 2.23.62.41 0 .83.02 1.09.12.28.12.6.42.9.72.54.51 1.15 1.1 1.97 1.1.82 0 1.43-.59 1.97-1.1.3-.3.62-.6.9-.72.26-.1.68-.11 1.09-.12.76 0 1.63-.02 2.23-.62.6-.6.61-1.47.62-2.23 0-.41.02-.83.12-1.09.12-.28.42-.6.72-.9.51-.54 1.1-1.15 1.1-1.97 0-.82-.59-1.43-1.1-1.97Zm-4.08.54-4.38 4.37a.63.63 0 0 1-.88 0l-1.88-1.87a.63.63 0 0 1 .89-.89l1.43 1.44 3.93-3.94a.63.63 0 0 1 .89.89Z" />
  </symbol>
  <symbol id="icon-headphones" viewBox="0 0 24 24" stroke="none">
    <path
      d="M7 21H5c-.55 0-1.02-.2-1.41-.59-.4-.39-.59-.86-.59-1.41v-7c0-1.25.24-2.42.71-3.51A9.18 9.18 0 0 1 8.5 3.7 8.73 8.73 0 0 1 12 3c1.25 0 2.42.24 3.51.71A9.17 9.17 0 0 1 20.3 8.5c.47 1.09.71 2.26.71 3.51v7c0 .55-.2 1.02-.59 1.41-.39.4-.86.6-1.41.59h-2c-.55 0-1.02-.2-1.41-.59-.4-.39-.59-.86-.59-1.41v-4c0-.55.2-1.02.59-1.41.39-.4.86-.59 1.41-.59h2v-1c0-1.95-.68-3.6-2.04-4.96A6.76 6.76 0 0 0 12 5c-1.95 0-3.6.68-4.96 2.04A6.77 6.77 0 0 0 5 12v1h2c.55 0 1.02.2 1.41.59.4.39.6.86.59 1.41v4c0 .55-.2 1.02-.59 1.41-.39.4-.86.6-1.41.59Z" />
  </symbol>
  <symbol id="icon-mail" viewBox="0 0 16 16" stroke="none">
    <path
      d="M14.6667 5.023v6.3099a1.9999 1.9999 0 0 1-1.8827 1.9967l-.1173.0033H3.3333a1.9995 1.9995 0 0 1-1.9966-1.8826l-.0034-.1174v-6.31L7.63 9.221l.0773.044a.6666.6666 0 0 0 .5854 0l.0773-.044 6.2967-4.198Z" />
    <path d="M12.6667 2.6665c.72 0 1.3513.38 1.7033.9513L8 7.8645 1.63 3.6178a2.0002 2.0002 0 0 1 1.5693-.9466l.134-.0047h9.3334Z" />
  </symbol>
  <symbol id="icon-new-tab" viewBox="0 0 13 12" stroke="none">
    <path d="M12.15 1a.61.61 0 0 0-.61-.61h-5.5a.61.61 0 1 0 0 1.22h4.89v4.88a.61.61 0 0 0 1.22 0V1ZM1 11.54l.43.43L11.97 1.43 11.54 1 11.1.57.57 11.1l.43.44Z" />
  </symbol>
  <symbol id="icon-phone" viewBox="0 0 17 16" stroke="none">
    <path
      d="m13.32 10.17-1.7-.19a1.33 1.33 0 0 0-1.09.38l-1.22 1.23c-1.9-.97-3.43-2.5-4.4-4.4l1.24-1.23c.28-.29.42-.69.38-1.1l-.2-1.67A1.33 1.33 0 0 0 5.01 2H3.85c-.75 0-1.38.62-1.33 1.38.35 5.69 4.9 10.24 10.6 10.59.75.05 1.37-.58 1.37-1.33v-1.16c.01-.67-.5-1.24-1.17-1.32Z" />
  </symbol>
  <symbol id="icon-pin" viewBox="0 0 17 17" stroke="none">
    <path
      d="M8.5 8.4998c-.7792 0-1.4167-.6375-1.4167-1.4166 0-.7792.6375-1.4167 1.4167-1.4167.7792 0 1.4167.6375 1.4167 1.4167 0 .7791-.6375 1.4166-1.4167 1.4166Zm0-7.0833c-2.975 0-5.6667 2.2808-5.6667 5.8083 0 2.3517 1.8913 5.1355 5.6667 8.3584 3.7754-3.2229 5.6667-6.0067 5.6667-8.3584 0-3.5275-2.6917-5.8083-5.6667-5.8083Z" />
  </symbol>
  <symbol id="icon-play" viewBox="0 0 18 22" stroke="none">
    <path d="M18 11 0 21.4V.6L18 11Z" />
  </symbol>
  <symbol id="icon-ruble" viewBox="0 0 25 25" stroke="none">
    <path d="M14 11.75h-2.75V8.46a.25.25 0 0 1 .2-.2h.05l.2-.01H14a1.75 1.75 0 0 1 0 3.5Z" />
    <path fill-rule="evenodd" clip-rule="evenodd"
      d="M22.5 12.5a10 10 0 1 1-20 0 10 10 0 0 1 20 0Zm-13.75 2a.75.75 0 0 1 .75-.75h.25v-.5H9.5a.75.75 0 1 1 0-1.5h.25V8.66c0-.14 0-.3.02-.43a1.75 1.75 0 0 1 1.46-1.46c.13-.02.29-.02.43-.02H14a3.25 3.25 0 1 1 0 6.5h-2.75v.5h1.25a.75.75 0 1 1 0 1.5h-1.25v2.25a.75.75 0 1 1-1.5 0v-2.25H9.5a.75.75 0 0 1-.75-.75Z" />
  </symbol>
  <symbol id="icon-safe-lock" viewBox="0 0 24 24" stroke="none">
    <path fill-rule="evenodd" clip-rule="evenodd"
      d="M11.3 2.2a2 2 0 0 1 1.4 0l7 2.62A2 2 0 0 1 21 6.69v5.37a9 9 0 0 1-4.98 8.05l-3.35 1.67a1.5 1.5 0 0 1-1.34 0l-3.36-1.67A9 9 0 0 1 3 12.06V6.69a2 2 0 0 1 1.3-1.87l7-2.62Zm1.7 9.53a2 2 0 1 0-2 0V15a1 1 0 0 0 2 0v-3.27Z" />
  </symbol>
  <symbol id="icon-snow" viewBox="0 0 24 24" stroke="none">
    <path
      d="M13 3c0-.26522-.1054-.51957-.2929-.70711C12.5196 2.10536 12.2652 2 12 2c-.2652 0-.5196.10536-.7071.29289C11.1053 2.48043 11 2.73478 11 3v.962l-.654-.346a.999849.999849 0 0 0-.37389-.11161.999807.999807 0 0 0-.38813.03996 1.000075 1.000075 0 0 0-.3433.18544 1.000044 1.000044 0 0 0-.24619.30271 1.000162 1.000162 0 0 0-.11162.37388 1.000207 1.000207 0 0 0 .03996.38813.999963.999963 0 0 0 .18545.34329.999928.999928 0 0 0 .30271.2462L11 6.224v1.902a3.999747 3.999747 0 0 0-1.85401 1.072l-1.648-.952.067-1.796c.00981-.26508-.08608-.52321-.26659-.71759-.1805-.19438-.43083-.3091-.69591-.31891-.26509-.00981-.52321.08608-.71759.26658-.19438.18051-.3091.43084-.31891.69592l-.027.739-.833-.48a1.000079 1.000079 0 0 0-.37294-.13779 1.000061 1.000061 0 0 0-.39715.01842 1.00001 1.00001 0 0 0-.35858.1717 1.000128 1.000128 0 0 0-.26334.29785 1.000135 1.000135 0 0 0-.12648.37693 1.000075 1.000075 0 0 0 .03039.39641.999758.999758 0 0 0 .18244.35324.999857.999857 0 0 0 .30566.25424l.833.481-.627.394c-.21869.14373-.37233.36746-.42794.62317-.05561.25573-.00876.52303.13048.74463.13925.2216.35981.3797.61434.4405.25454.0608.52276.0194.74712-.1153l1.522-.956 1.647.951c-.19473.7007-.19473 1.4413 0 2.142l-1.647.95-1.522-.955c-.22436-.1347-.49258-.1761-.74712-.1153-.25453.0608-.47509.2189-.61434.4405-.13924.2216-.18609.4889-.13048.7446.05561.2557.20925.4795.42794.6232l.627.394-.833.48c-.11379.0657-.21354.1531-.29354.2573-.08.1042-.13869.2232-.17272.35a1.000495 1.000495 0 0 0-.02563.3895c.01712.1303.05973.2559.12539.3697.06566.1138.15309.2135.2573.2935.10421.08.22315.1387.35004.1728.12689.034.25925.0427.3895.0256a.999416.999416 0 0 0 .36966-.1254l.832-.481.028.74c.00492.1313.03565.2603.09043.3796.05478.1194.13254.2268.22883.3162.0963.0893.20924.1588.33239.2045.12315.0456.25409.0666.38535.0617.13125-.0049.26025-.0357.37964-.0904.11938-.0548.2268-.1326.31613-.2289.08933-.0963.15882-.2092.2045-.3324.04568-.1231.06665-.254.06173-.3853l-.067-1.796 1.648-.952c.50907.5192 1.15001.8898 1.85401 1.072v1.902l-1.58901.84c-.23445.124-.41005.336-.48816.5895-.07811.2534-.05233.5275.07166.762.12399.2345.33603.41.58949.4882.25345.0781.52752.0523.76202-.0717l.654-.346V21c0 .2652.1053.5196.2929.7071.1875.1875.4419.2929.7071.2929.2652 0 .5196-.1054.7071-.2929S13 21.2652 13 21v-.962l.654.346c.2344.124.5085.1498.762.0717.2535-.0782.4655-.2537.5895-.4882.124-.2345.1498-.5086.0716-.762-.0781-.2535-.2537-.4655-.4881-.5895L13 17.776v-1.902c.7038-.1819 1.3448-.5522 1.854-1.071l1.648.951-.067 1.796c-.0049.1313.016.2622.0617.3853.0457.1232.1152.2361.2045.3324.0893.0963.1968.1741.3162.2289.1193.0547.2483.0855.3796.0904.1312.0049.2622-.0161.3853-.0617.1232-.0457.2361-.1152.3324-.2045.0963-.0894.1741-.1968.2289-.3162.0547-.1193.0855-.2483.0904-.3796l.027-.74.833.481c.1138.0667.2396.1102.3703.1281.1306.0179.2635.0097.391-.024s.2471-.0923.3519-.1724c.1047-.0801.1926-.1802.2586-.2944.0659-.1142.1086-.2403.1256-.3711.017-.1308.008-.2636-.0266-.3909-.0346-.1273-.0939-.2464-.1747-.3507-.0808-.1042-.1815-.1914-.2961-.2566l-.832-.48.626-.394c.2246-.1411.384-.3656.4431-.6243.0591-.2586.013-.5301-.1281-.7547-.1411-.2246-.3657-.384-.6243-.4431-.2586-.0591-.5301-.013-.7547.1281l-1.522.956-1.647-.95c.1949-.701.1949-1.442 0-2.143l1.647-.951 1.522.956c.2246.1411.4961.1872.7547.1281.2586-.0591.4832-.2185.6243-.4431.1411-.2246.1872-.4961.1281-.75474-.0591-.25861-.2185-.48317-.4431-.62426l-.627-.393.833-.481c.1146-.06518.2153-.1524.2961-.25663.0808-.10422.1401-.2234.1747-.35068.0346-.12727.0436-.26012.0266-.3909a1.00072 1.00072 0 0 0-.1256-.37112 1.001799 1.001799 0 0 0-.2586-.29436 1.00078 1.00078 0 0 0-.3519-.17241.999801.999801 0 0 0-.391-.024c-.1307.01787-.2565.0614-.3703.1281l-.833.48-.027-.739c-.0049-.13126-.0357-.26026-.0904-.37964-.0548-.11938-.1326-.2268-.2289-.31613-.0963-.08933-.2092-.15882-.3324-.2045-.1231-.04568-.2541-.06665-.3853-.06173-.1313.00492-.2603.03565-.3796.09043-.1194.05478-.2269.13254-.3162.22883-.0893.0963-.1588.20924-.2045.33239-.0457.12315-.0666.25409-.0617.38535l.067 1.796-1.648.951c-.5092-.51884-1.1502-.88911-1.854-1.071V6.224l1.589-.84c.2344-.12399.41-.33603.4881-.58949.0782-.25346.0524-.52756-.0716-.76201-.124-.23445-.336-.41005-.5895-.48815-.2535-.07811-.5276-.05234-.762.07165L13 3.962V3Z" />
  </symbol>
  <symbol id="icon-star" viewBox="0 0 18 18" stroke="none">
    <path
      d="m9.62.88 2.25 4.5c.1.2.3.34.52.38l5.02.72c.56.08.8.77.38 1.16l-3.63 3.5a.68.68 0 0 0-.2.61l.86 4.95c.1.56-.5.98-1 .72l-4.5-2.34a.7.7 0 0 0-.64 0l-4.5 2.34a.69.69 0 0 1-1-.72l.86-4.95a.68.68 0 0 0-.2-.6L.21 7.65a.68.68 0 0 1 .38-1.17l5.02-.72a.69.69 0 0 0 .52-.38L8.38.88a.7.7 0 0 1 1.24 0Z" />
  </symbol>
  <symbol id="icon-sun" viewBox="0 0 24 24" stroke="none">
    <path
      d="M12 19a1 1 0 0 1 .993.883L13 20v1a1 1 0 0 1-1.993.117L11 21v-1a1 1 0 0 1 1-1Zm6.313-2.09.094.083.7.7a1 1 0 0 1-1.32 1.497l-.094-.083-.7-.7a1 1 0 0 1 1.218-1.567l.102.07Zm-11.306.083a1 1 0 0 1 .083 1.32l-.083.094-.7.7a1 1 0 0 1-1.497-1.32l.083-.094.7-.7a1 1 0 0 1 1.414 0ZM4 11a1 1 0 0 1 .117 1.993L4 13H3a1 1 0 0 1-.117-1.993L3 11h1Zm17 0a1 1 0 0 1 .117 1.993L21 13h-1a1 1 0 0 1-.117-1.993L20 11h1ZM6.213 4.81l.094.083.7.7a1 1 0 0 1-1.32 1.497l-.094-.083-.7-.7A1 1 0 0 1 6.11 4.74l.103.07Zm12.894.083a1 1 0 0 1 .083 1.32l-.083.094-.7.7a1 1 0 0 1-1.497-1.32l.083-.094.7-.7a1 1 0 0 1 1.414 0ZM12 2a1 1 0 0 1 .993.883L13 3v1a1 1 0 0 1-1.993.117L11 4V3a1 1 0 0 1 1-1Zm0 5a5 5 0 1 1-4.995 5.217L7 12l.005-.217A5 5 0 0 1 12 7Z" />
  </symbol>
  <symbol id="icon-vkontakte" viewBox="0 0 20 20" stroke="none">
    <path
      d="M17.92 15.318h-1.902c-.719 0-.936-.583-2.225-1.873-1.126-1.086-1.602-1.22-1.887-1.22-.394 0-.502.107-.502.65v1.71c0 .462-.15.733-1.358.733a7.417 7.417 0 0 1-5.796-3.475 15.167 15.167 0 0 1-3-6.298c0-.285.108-.543.652-.543h1.9c.488 0 .664.217.855.72.923 2.715 2.497 5.076 3.136 5.076.245 0 .352-.108.352-.719V7.283c-.08-1.276-.758-1.384-.758-1.845a.47.47 0 0 1 .487-.436h2.987c.408 0 .543.203.543.691v3.775c0 .408.175.543.299.543.245 0 .433-.135.882-.583a15.666 15.666 0 0 0 2.335-3.884.817.817 0 0 1 .828-.541h1.9c.57 0 .691.285.57.691a23.751 23.751 0 0 1-2.551 4.385c-.205.313-.287.475 0 .842.188.285.855.841 1.302 1.37a8.461 8.461 0 0 1 1.602 2.226c.163.53-.109.8-.651.8Z" />
  </symbol>
  <symbol id="icon-whatsapp" viewBox="0 0 20 20" stroke="none">
    <path
      d="M10 1.667a8.333 8.333 0 1 1 0 16.666 8.292 8.292 0 0 1-4.19-1.129l-4.14 1.13 1.127-4.14A8.333 8.333 0 0 1 10 1.666ZM7.16 6.083l-.166.007a.833.833 0 0 0-.31.083c-.09.051-.173.115-.245.19-.1.094-.157.176-.217.255-.309.4-.475.893-.472 1.399.002.408.108.805.275 1.177.34.752.902 1.547 1.642 2.285.178.178.353.356.541.522a7.875 7.875 0 0 0 3.2 1.705l.474.072c.154.008.308-.003.463-.01.243-.014.48-.08.694-.193.11-.056.216-.118.32-.183 0 0 .035-.024.104-.075.112-.084.181-.143.275-.24a.97.97 0 0 0 .175-.252c.064-.136.13-.395.156-.611.02-.165.014-.255.012-.31-.003-.09-.078-.182-.159-.222l-.485-.217s-.724-.316-1.168-.518a.417.417 0 0 0-.146-.034.4.4 0 0 0-.316.106c-.004-.002-.06.046-.662.776a.292.292 0 0 1-.307.108 1.173 1.173 0 0 1-.159-.055c-.103-.043-.139-.06-.21-.09a5 5 0 0 1-1.312-.836c-.105-.091-.203-.191-.303-.288a5.25 5.25 0 0 1-.85-1.057l-.049-.079a.833.833 0 0 1-.085-.17c-.032-.123.05-.221.05-.221s.203-.222.297-.342c.092-.117.17-.23.22-.311.098-.158.129-.32.077-.447a68.147 68.147 0 0 0-.723-1.7c-.05-.112-.195-.192-.328-.208a2.501 2.501 0 0 0-.47-.01l.168-.006Z" />
  </symbol>
  <symbol id="icon-youtube" viewBox="0 0 20 20" stroke="none">
    <path
      d="M19.17 8.1a7.08 7.08 0 0 0-.76-3.45 2.43 2.43 0 0 0-1.43-.83A65 65 0 0 0 10 3.56c-2.32-.04-4.64.04-6.95.25-.46.08-.88.3-1.22.61C1.08 5.12 1 6.3.92 7.3a40 40 0 0 0 0 5.4 8 8 0 0 0 .25 1.67c.1.42.3.8.59 1.13.34.34.77.56 1.24.65 1.8.22 3.6.31 5.42.27 2.91.05 5.47 0 8.5-.23.48-.08.92-.3 1.27-.65.23-.23.4-.52.51-.83.3-.92.44-1.87.43-2.84.04-.46.04-3.28.04-3.78ZM8.12 12.36V7.22l4.93 2.59c-1.38.76-3.2 1.63-4.93 2.56Z" />
  </symbol>
</svg>
